 <svg  version="1.0" xmlns="http://www.w3.org/2000/svg"  width="900.000000pt" height="858.000000pt" viewBox="0 0 900.000000 858.000000"  preserveAspectRatio="xMidYMid meet">  <g transform="translate(0.000000,858.000000) scale(0.100000,-0.100000)" fill="#005ef5" stroke="none"> <path d="M2537 8425 c-38 -7 -73 -17 -80 -24 -6 -6 -21 -11 -33 -11 -12 0 -27 -7 -34 -15 -7 -8 -20 -15 -30 -15 -10 0 -23 -7 -30 -15 -7 -8 -17 -15 -22 -15 -16 0 -124 -88 -165 -134 -35 -40 -84 -128 -123 -221 -14 -33 -42 -175 -43 -215 -1 -44 30 -201 42 -213 6 -6 11 -17 11 -25 0 -8 13 -33 28 -56 15 -22 31 -49 35 -59 18 -48 101 -147 150 -179 133 -86 197 -112 322 -127 87 -11 128 -35 161 -95 25 -44 54 -109 54 -122 0 -14 20 -66 46 -117 8 -16 14 -35 14 -44 0 -8 6 -27 14 -41 53 -106 96 -203 96 -220 0 -27 -44 -69 -105 -98 -49 -25 -68 -34 -102 -54 -10 -6 -27 -15 -38 -20 -11 -6 -33 -19 -50 -30 -16 -11 -52 -31 -80 -45 -27 -14 -58 -30 -67 -35 -45 -25 -56 -30 -98 -51 -47 -23 -186 -113 -208 -136 -8 -7 -34 -27 -60 -45 -53 -36 -64 -46 -176 -143 -114 -99 -153 -141 -216 -229 -30 -43 -79 -104 -108 -136 -49 -54 -221 -278 -249 -325 -12 -20 -94 -185 -114 -228 -5 -12 -15 -31 -22 -42 -7 -11 -35 -61 -64 -111 -29 -50 -60 -97 -70 -106 -18 -16 -114 -66 -183 -96 -85 -36 -110 -49 -189 -101 -96 -62 -281 -240 -281 -269 0 -11 -7 -25 -15 -32 -8 -7 -15 -20 -15 -30 0 -10 -6 -23 -14 -29 -8 -6 -16 -24 -19 -39 -8 -44 -35 -109 -93 -229 -30 -62 -54 -117 -54 -124 0 -6 -7 -33 -15 -60 -8 -27 -22 -71 -30 -98 -31 -102 -29 -423 4 -518 24 -72 33 -99 40 -128 4 -16 20 -57 36 -90 15 -33 37 -80 48 -105 39 -86 111 -184 206 -280 85 -87 208 -190 226 -190 3 0 21 -11 38 -24 18 -13 55 -33 82 -46 28 -12 63 -28 78 -36 16 -8 41 -14 55 -14 15 0 45 -9 68 -19 33 -15 46 -29 67 -75 15 -31 27 -61 27 -66 0 -14 148 -302 165 -320 8 -9 15 -20 15 -24 0 -5 12 -25 28 -45 15 -20 32 -43 37 -53 42 -68 125 -183 233 -319 50 -64 45 -57 107 -139 27 -36 71 -88 99 -116 48 -47 168 -144 180 -144 6 0 132 -85 177 -121 20 -16 39 -29 42 -29 3 0 25 -12 49 -27 69 -45 82 -52 103 -63 11 -6 34 -19 50 -30 17 -11 53 -31 80 -45 52 -27 74 -38 103 -55 9 -6 24 -13 32 -16 8 -3 31 -13 50 -22 19 -8 49 -21 65 -28 17 -6 47 -19 68 -28 21 -9 45 -16 55 -16 9 0 26 -7 36 -15 11 -8 30 -15 43 -15 12 0 37 -6 55 -14 35 -15 108 -31 198 -45 30 -5 75 -14 100 -20 25 -6 61 -11 81 -11 20 0 53 -7 72 -15 21 -9 67 -15 109 -15 40 0 159 -7 263 -15 229 -18 1272 -21 1345 -4 24 5 96 14 160 18 63 5 129 13 145 19 17 6 57 16 90 22 203 40 330 72 378 96 16 8 38 14 49 14 11 0 32 6 46 13 15 8 44 21 65 30 89 40 106 48 187 87 47 22 108 54 135 70 28 16 61 35 75 41 33 14 178 110 272 181 42 32 80 58 84 58 23 0 164 138 237 232 24 31 57 70 73 86 128 131 182 199 234 297 6 11 19 34 30 50 11 17 24 39 30 50 6 11 19 34 30 50 11 17 23 37 27 45 3 8 18 31 32 50 50 68 121 205 121 236 1 10 7 30 15 44 8 14 14 37 15 52 0 38 55 98 89 98 47 0 149 41 226 90 17 11 37 23 45 27 8 4 33 19 55 33 71 45 80 50 100 59 24 11 145 134 145 148 0 5 32 44 71 87 67 71 104 125 130 186 6 14 17 38 25 53 8 16 14 36 14 46 0 9 7 26 15 37 8 10 15 29 15 40 0 12 7 27 15 34 8 7 15 23 15 35 0 12 7 42 16 66 21 57 25 469 5 493 -7 8 -16 39 -21 68 -8 56 -24 105 -46 150 -8 14 -14 31 -14 38 0 11 -82 191 -101 220 -5 8 -12 22 -15 30 -14 34 -47 97 -65 125 -10 17 -23 39 -28 50 -10 21 -135 171 -204 244 -23 24 -68 63 -101 87 -65 49 -109 56 -185 29 l-41 -14 -61 56 c-34 32 -65 66 -70 78 -5 11 -13 27 -18 35 -12 19 -89 188 -106 230 -3 8 -21 42 -40 75 -19 33 -39 69 -44 80 -6 11 -33 52 -60 90 -27 39 -76 108 -108 155 -32 46 -102 131 -156 189 -54 57 -119 132 -144 165 -26 34 -71 85 -102 115 -53 50 -349 279 -381 294 -8 4 -28 16 -45 27 -16 11 -37 22 -45 26 -8 3 -22 9 -30 14 -8 5 -53 28 -100 51 -47 24 -86 47 -88 51 -2 4 -8 8 -14 8 -5 0 -35 16 -66 35 -32 18 -86 49 -122 67 -62 32 -65 36 -68 72 -2 22 3 53 11 70 9 17 23 51 32 76 9 25 23 58 31 73 8 16 14 36 14 46 0 9 7 26 15 37 8 10 15 30 15 44 0 14 7 36 15 50 8 14 14 35 15 47 0 33 62 174 83 192 8 6 49 15 93 21 96 13 193 39 215 57 8 7 21 13 27 13 36 0 272 202 272 234 0 4 14 25 30 46 17 21 30 42 30 48 0 6 6 23 14 39 43 87 57 255 31 367 -23 93 -41 139 -84 206 -46 73 -196 219 -252 246 -108 53 -157 72 -204 80 -98 16 -252 5 -305 -21 -14 -7 -47 -23 -75 -35 -51 -23 -143 -87 -181 -124 -67 -68 -149 -200 -183 -296 -47 -131 -34 -324 31 -465 20 -43 23 -48 81 -139 47 -75 46 -69 4 -154 -9 -19 -17 -39 -17 -47 0 -22 -46 -114 -86 -170 -20 -28 -49 -88 -80 -162 -85 -202 -99 -223 -153 -223 -20 1 -47 7 -61 15 -14 8 -38 15 -55 15 -16 0 -41 7 -55 15 -14 8 -40 14 -58 15 -18 0 -43 5 -55 12 -12 6 -48 14 -82 18 -33 4 -98 13 -145 19 -218 28 -307 35 -470 38 -101 3 -190 0 -210 -6 -19 -5 -82 -15 -140 -20 -127 -13 -240 -29 -300 -42 -25 -6 -67 -14 -95 -18 -27 -4 -63 -13 -78 -19 -16 -7 -42 -12 -58 -12 -17 0 -44 -7 -60 -16 -45 -23 -110 -15 -125 14 -6 13 -17 29 -23 35 -6 6 -11 17 -11 24 0 13 -81 191 -101 223 -5 8 -12 22 -16 30 -4 8 -18 33 -32 55 -14 22 -35 58 -47 80 -11 22 -31 56 -43 75 -11 19 -23 42 -27 50 -3 8 -12 27 -20 42 -8 14 -14 31 -14 38 0 10 53 85 70 100 10 8 74 103 92 137 10 18 18 48 18 65 0 18 7 55 15 82 8 27 15 70 15 96 0 26 -7 69 -15 96 -8 27 -15 62 -15 77 0 49 -57 167 -110 229 -88 103 -179 177 -275 221 -22 10 -49 23 -60 29 -26 14 -160 38 -205 36 -19 0 -66 -6 -103 -13z m2172 -1965 c28 -5 107 -14 176 -20 118 -9 292 -42 396 -75 26 -8 56 -15 68 -15 11 0 38 -6 58 -14 21 -8 85 -29 143 -47 58 -17 132 -42 165 -55 33 -12 92 -33 130 -45 39 -12 79 -29 90 -36 11 -7 29 -13 40 -13 25 0 189 -82 271 -136 32 -21 66 -42 74 -47 8 -4 29 -16 45 -27 17 -11 37 -23 45 -27 46 -20 292 -219 389 -313 9 -9 38 -33 66 -55 69 -55 195 -181 236 -235 18 -25 57 -70 85 -100 71 -75 90 -99 170 -216 82 -119 85 -124 120 -189 14 -27 41 -70 59 -95 31 -44 165 -266 165 -275 0 -2 19 -46 43 -97 41 -87 57 -132 93 -268 8 -30 19 -68 24 -85 10 -33 26 -122 41 -230 5 -38 15 -99 21 -135 15 -77 13 -473 -2 -529 -5 -20 -14 -72 -20 -116 -13 -103 -34 -212 -49 -248 -6 -16 -11 -39 -11 -52 0 -13 -7 -30 -15 -39 -8 -8 -15 -25 -15 -38 0 -13 -7 -33 -15 -44 -8 -10 -15 -33 -15 -51 0 -17 -5 -35 -10 -38 -23 -14 -7 68 30 160 5 11 11 49 15 85 3 36 10 79 15 95 26 88 46 400 28 428 -11 17 -25 -8 -33 -58 -10 -65 -15 -75 -37 -75 -12 0 -33 -14 -48 -31 -22 -27 -32 -31 -78 -32 -47 -1 -52 -3 -52 -23 0 -12 6 -25 13 -27 6 -3 -5 -6 -27 -6 -30 -1 -37 2 -32 14 7 18 -30 58 -47 52 -7 -2 -11 -11 -9 -20 2 -14 -8 -16 -73 -13 -68 3 -75 1 -75 -16 0 -14 -6 -19 -22 -16 -20 3 -23 9 -22 50 0 32 -4 49 -14 53 -24 9 -42 -14 -35 -46 5 -27 4 -29 -27 -29 -19 0 -41 7 -51 16 -17 15 -16 17 2 35 10 10 28 19 39 19 13 0 20 7 20 20 0 22 -19 27 -37 9 -16 -16 -24 16 -19 79 3 29 2 52 -2 52 -17 -1 -40 -50 -46 -101 -11 -86 -49 -189 -129 -348 -63 -127 -80 -153 -142 -212 -38 -37 -88 -81 -110 -98 -22 -17 -47 -37 -56 -46 -9 -8 -20 -15 -26 -15 -5 0 -20 -11 -33 -25 -13 -14 -27 -25 -31 -25 -5 0 -39 -20 -76 -44 -37 -24 -79 -47 -92 -51 -14 -4 -39 -16 -55 -26 -50 -29 -108 -57 -156 -74 -111 -41 -222 -75 -310 -94 -52 -12 -111 -26 -130 -31 -52 -14 -157 -29 -315 -46 -77 -8 -187 -21 -245 -29 -58 -9 -190 -19 -295 -24 -242 -11 -1001 -5 -1103 9 -42 5 -113 12 -157 16 -44 3 -87 7 -95 9 -8 3 -62 11 -120 20 -278 40 -511 89 -664 139 -60 20 -114 36 -120 36 -24 1 -272 134 -381 205 -62 40 -150 111 -184 149 -20 22 -60 64 -89 95 -28 30 -52 62 -52 71 0 8 -9 26 -20 40 -11 14 -20 29 -20 34 0 5 -8 28 -19 50 -10 23 -27 66 -37 96 -10 30 -24 64 -31 75 -7 11 -13 29 -13 40 0 11 -8 30 -18 43 -14 18 -24 22 -45 17 -15 -4 -27 -11 -27 -16 0 -12 37 -49 49 -49 14 0 25 -40 14 -51 -14 -14 -43 0 -43 20 0 15 -10 17 -58 16 -55 -1 -58 -2 -73 -35 -9 -19 -14 -40 -12 -47 8 -21 -64 -17 -76 4 -9 17 -10 17 -28 0 -19 -16 -21 -16 -41 6 -12 13 -22 31 -22 40 0 21 26 22 34 2 13 -34 43 -11 37 28 -1 4 6 10 14 13 8 4 15 10 15 16 0 5 -4 7 -9 4 -5 -3 -22 1 -37 9 -39 20 -51 19 -57 -6 -4 -16 -11 -20 -27 -16 -16 4 -20 2 -16 -9 9 -23 -56 -18 -77 6 -30 35 -55 19 -36 -23 8 -18 8 -30 1 -43 -10 -18 -11 -18 -17 1 -19 53 -31 75 -42 75 -7 0 -13 7 -13 15 0 8 -7 15 -15 15 -8 0 -15 7 -15 15 0 8 -7 15 -15 15 -8 0 -15 5 -15 10 0 16 -32 11 -47 -7 -13 -16 -13 -15 -8 13 5 24 2 33 -11 38 -25 10 -36 -13 -29 -59 4 -22 6 -49 6 -60 -2 -37 9 -65 25 -65 12 0 14 -5 8 -17 -12 -27 -7 -102 10 -137 8 -17 16 -58 19 -91 2 -33 10 -73 16 -90 7 -16 15 -43 18 -60 3 -16 14 -46 25 -65 18 -34 26 -126 10 -116 -5 3 -17 36 -27 73 -10 37 -24 75 -31 84 -8 8 -14 36 -14 61 0 27 -5 48 -12 50 -6 2 -17 29 -24 59 -6 30 -21 92 -32 139 -49 203 -65 371 -58 595 3 99 12 212 19 250 8 39 20 102 26 140 7 39 21 102 32 140 11 39 25 88 31 110 19 71 46 148 78 225 52 123 61 142 105 210 41 65 74 125 115 210 31 66 38 77 115 170 86 104 190 241 196 257 4 12 384 399 430 438 13 11 42 34 64 50 37 28 97 80 134 116 23 23 138 109 146 109 3 0 18 8 33 19 176 122 321 205 417 237 39 13 95 33 125 44 30 12 69 26 85 30 17 5 122 40 235 79 113 39 214 71 224 71 11 0 42 6 70 14 148 41 264 63 416 77 69 7 157 15 195 19 111 11 347 11 404 0z m3111 -3458 c0 -28 -11 -34 -31 -16 -21 19 -16 34 12 34 12 0 19 -7 19 -18z m-6097 -43 c-7 -25 -43 -25 -43 -1 0 25 7 31 29 25 13 -3 17 -11 14 -24z m-289 -5 c9 -3 16 -15 16 -25 0 -15 -7 -19 -37 -19 -31 1 -35 3 -20 11 9 5 17 17 17 24 0 17 2 17 24 9z m347 -107 c-8 -8 -11 -3 -11 19 1 25 2 27 11 11 8 -14 8 -22 0 -30z m5962 -460 c3 -8 1 -20 -4 -28 -6 -10 -9 -7 -9 14 0 29 5 35 13 14z m-27 -104 c-11 -11 -19 6 -11 24 8 17 8 17 12 0 3 -10 2 -21 -1 -24z"/> <path d="M3920 5653 c-47 -2 -89 -8 -94 -13 -12 -12 195 -12 269 0 l50 7 -41 2 c-23 0 -54 2 -70 4 -16 2 -67 2 -114 0z"/> <path d="M4930 5650 l-65 -5 49 -7 c68 -11 252 -10 241 1 -13 11 -143 18 -225 11z"/> <path d="M3600 5610 c-11 -7 -3 -10 30 -10 25 0 52 5 60 10 11 7 3 10 -30 10 -25 0 -52 -5 -60 -10z"/> <path d="M5225 5610 c11 -5 49 -9 85 -9 45 0 59 3 45 9 -11 5 -49 9 -85 9 -45 0 -59 -3 -45 -9z"/> <path d="M3415 5580 c-4 -6 15 -10 49 -10 30 0 58 5 61 10 4 6 -15 10 -49 10 -30 0 -58 -4 -61 -10z"/> <path d="M5410 5580 c20 -13 110 -13 110 0 0 6 -27 10 -62 10 -45 0 -59 -3 -48 -10z"/> <path d="M3270 5550 c0 -5 18 -10 39 -10 22 0 43 5 46 10 4 6 -12 10 -39 10 -25 0 -46 -4 -46 -10z"/> <path d="M5585 5550 c3 -5 36 -10 73 -10 47 0 63 3 52 10 -20 13 -133 13 -125 0z"/> <path d="M3085 5520 c-4 -6 11 -10 39 -10 25 0 48 5 51 10 4 6 -11 10 -39 10 -25 0 -48 -4 -51 -10z"/> <path d="M5760 5521 c21 -12 110 -20 110 -11 0 13 -29 20 -78 20 -31 -1 -42 -4 -32 -9z"/> <path d="M5891 5502 c-22 -7 1 -22 36 -22 19 0 49 -6 66 -14 30 -12 66 -23 162 -47 22 -6 44 -14 50 -20 12 -12 68 -12 60 1 -3 6 -17 10 -29 10 -13 0 -29 7 -36 15 -7 8 -29 15 -50 15 -21 0 -43 6 -49 14 -6 8 -33 17 -59 21 -26 4 -51 10 -57 15 -12 9 -78 17 -94 12z"/> <path d="M2945 5490 c-4 -6 11 -10 39 -10 25 0 48 5 51 10 4 6 -11 10 -39 10 -25 0 -48 -4 -51 -10z"/> <path d="M2840 5460 c0 -13 60 -13 80 0 11 7 2 10 -32 10 -27 0 -48 -4 -48 -10z"/> <path d="M2745 5430 c-4 -6 8 -10 29 -10 20 0 36 5 36 10 0 6 -13 10 -29 10 -17 0 -33 -4 -36 -10z"/> <path d="M2665 5400 c-4 -6 6 -10 24 -10 16 0 33 5 36 10 4 6 -6 10 -24 10 -16 0 -33 -4 -36 -10z"/> <path d="M6286 5382 c-11 -11 7 -22 35 -22 17 0 28 4 25 9 -7 10 -53 20 -60 13z"/> <path d="M2585 5370 c-3 -6 5 -10 19 -10 14 0 28 5 31 10 3 6 -5 10 -19 10 -14 0 -28 -4 -31 -10z"/> <path d="M2495 5340 c-4 -6 7 -10 24 -10 17 0 31 5 31 10 0 6 -11 10 -24 10 -14 0 -28 -4 -31 -10z"/> <path d="M6375 5340 c3 -5 14 -10 24 -10 10 0 24 -7 31 -15 7 -8 24 -15 38 -15 14 0 33 -7 43 -16 9 -8 28 -14 41 -12 22 4 22 5 3 12 -28 10 -85 35 -118 52 -33 16 -71 19 -62 4z"/> <path d="M2425 5310 c-4 -6 6 -10 24 -10 16 0 33 5 36 10 4 6 -6 10 -24 10 -16 0 -33 -4 -36 -10z"/> <path d="M2360 5280 c0 -5 9 -10 19 -10 11 0 23 5 26 10 4 6 -5 10 -19 10 -14 0 -26 -4 -26 -10z"/> <path d="M2290 5250 c0 -5 6 -10 14 -10 8 0 18 5 21 10 3 6 -3 10 -14 10 -12 0 -21 -4 -21 -10z"/> <path d="M6590 5250 c0 -5 14 -10 31 -10 17 0 28 4 24 10 -3 6 -17 10 -31 10 -13 0 -24 -4 -24 -10z"/> <path d="M2195 5220 c-4 -6 7 -10 24 -10 17 0 31 5 31 10 0 6 -11 10 -24 10 -14 0 -28 -4 -31 -10z"/> <path d="M6680 5220 c0 -5 13 -10 29 -10 16 0 34 -7 41 -15 7 -8 23 -15 35 -15 12 0 28 -7 35 -15 7 -8 18 -15 26 -15 31 0 184 -90 259 -152 18 -16 37 -28 43 -28 5 0 12 -6 15 -14 7 -19 47 -28 47 -11 0 8 -8 16 -17 19 -10 3 -29 16 -43 28 -70 64 -191 143 -235 154 -14 3 -25 10 -25 14 0 5 -14 12 -32 15 -18 4 -39 11 -48 16 -59 33 -130 49 -130 29z"/> <path d="M2115 5191 c-3 -5 -19 -12 -35 -16 -17 -4 -30 -10 -30 -15 0 -4 -15 -14 -32 -20 -25 -10 -29 -14 -15 -17 18 -5 102 31 113 48 3 5 14 9 24 9 10 0 22 5 25 10 3 6 -5 10 -19 10 -14 0 -27 -4 -31 -9z"/> <path d="M1940 5100 c0 -5 9 -10 19 -10 11 0 23 5 26 10 4 6 -5 10 -19 10 -14 0 -26 -4 -26 -10z"/> <path d="M1880 5065 c-7 -8 -19 -15 -26 -15 -8 0 -14 -4 -14 -10 0 -15 26 -12 40 5 7 8 18 15 26 15 7 0 16 5 19 10 10 16 -31 11 -45 -5z"/> <path d="M4105 4750 c-66 -5 -192 -14 -280 -19 -288 -18 -581 -62 -920 -137 -108 -25 -163 -43 -252 -85 -46 -21 -107 -48 -135 -61 -29 -12 -66 -32 -83 -43 -16 -12 -68 -44 -114 -71 -50 -30 -105 -73 -140 -109 -117 -126 -227 -323 -262 -471 -11 -49 -26 -107 -32 -129 -8 -26 -12 -119 -11 -260 0 -190 3 -231 21 -300 37 -141 51 -184 71 -227 11 -24 30 -65 42 -92 12 -27 26 -54 31 -60 5 -6 26 -33 46 -61 65 -87 178 -177 358 -285 50 -29 92 -57 95 -60 8 -12 134 -67 169 -75 18 -4 44 -13 59 -21 15 -8 37 -14 50 -14 13 0 33 -5 45 -12 12 -6 38 -15 57 -19 75 -17 157 -38 190 -48 19 -6 52 -11 73 -11 21 0 47 -4 57 -10 10 -5 52 -14 92 -20 113 -15 250 -39 267 -46 9 -4 77 -11 151 -15 74 -4 194 -12 265 -18 157 -12 970 -12 1023 0 20 5 87 11 147 15 61 3 133 12 162 20 28 8 77 14 109 14 32 0 83 6 113 14 64 16 165 34 263 46 37 5 75 13 85 18 10 5 37 13 60 17 24 4 45 10 48 15 3 4 25 11 50 14 24 4 47 11 50 17 4 5 14 9 24 9 10 0 40 9 67 21 54 22 67 28 134 55 25 10 50 21 56 26 6 4 42 24 80 44 63 34 194 128 202 146 2 5 9 8 15 8 32 1 213 197 222 240 4 17 10 30 14 30 8 0 44 69 85 162 94 218 101 664 14 893 -107 280 -268 471 -508 602 -317 175 -545 236 -1180 317 -267 35 -984 55 -1245 36z m-738 -856 c49 -9 66 -18 113 -60 88 -79 136 -267 93 -361 -54 -119 -186 -233 -269 -233 -67 0 -240 114 -291 192 -26 38 -28 49 -28 142 0 87 3 108 24 150 28 57 83 115 132 141 35 18 154 45 176 39 6 -1 29 -6 50 -10z m2395 -1 c25 -6 57 -27 101 -68 35 -34 66 -67 70 -75 4 -8 11 -22 16 -30 46 -78 51 -144 21 -243 -28 -91 -98 -153 -225 -199 -61 -22 -80 -22 -163 0 -56 14 -75 25 -122 72 -83 82 -100 121 -100 231 0 83 3 96 32 151 29 54 101 128 125 128 5 0 15 6 21 13 32 31 128 40 224 20z m-1879 -827 c18 -7 68 -21 112 -30 44 -9 99 -21 123 -27 134 -30 687 -29 766 1 15 5 46 10 69 10 23 0 58 5 77 10 20 5 76 11 125 12 l90 3 -1 -36 c-2 -87 -179 -282 -319 -351 -33 -17 -72 -37 -87 -44 -14 -8 -36 -14 -48 -14 -11 0 -35 -8 -53 -17 -27 -15 -59 -18 -212 -17 -125 0 -189 4 -210 14 -16 7 -48 16 -70 20 -171 33 -365 185 -440 345 -39 85 -41 97 -19 119 19 20 56 20 97 2z"/> <path d="M7857 3323 c-4 -3 -7 -20 -7 -36 0 -38 11 -29 16 13 4 31 2 35 -9 23z"/> <path d="M1075 3248 c-9 -23 -3 -50 13 -56 14 -4 16 36 2 58 -8 12 -10 12 -15 -2z"/> <path d="M1760 3215 c0 -10 7 -15 18 -13 21 4 19 22 -2 26 -10 2 -16 -3 -16 -13z"/> <path d="M1204 3118 c-7 -10 14 -38 28 -38 5 0 7 4 3 9 -3 5 1 16 9 24 13 13 12 15 -10 15 -13 0 -27 -5 -30 -10z"/> <path d="M1250 3058 c0 -4 9 -12 19 -18 21 -11 37 2 26 19 -6 11 -45 10 -45 -1z"/> </g> </svg> 